<svg id="Capa_1" data-name="Capa 1" xmlns="http://www.w3.org/2000/svg" viewBox="0 0 497.77 251.5">
  <defs>
    <style>
      .cls-1 {
        fill: #4b6eb3;
      }
    </style>
  </defs>
  <title>card2</title>
  <path class="cls-1" d="M45.9,274.06h254v47.74H140a53.57,53.57,0,0,0-100.39-.92A22.86,22.86,0,0,1,23,298.94v-2A22.84,22.84,0,0,1,45.9,274.06Zm81.79,60.71a39.88,39.88,0,1,1-39.89-39.89A39.92,39.92,0,0,1,127.7,334.77Zm-12.21,0A27.68,27.68,0,1,0,87.8,362.43,27.71,27.71,0,0,0,115.49,334.77Zm324.11,0a39.87,39.87,0,1,1-39.88-39.89A39.92,39.92,0,0,1,439.6,334.77Zm-12.19,0a27.68,27.68,0,1,0-27.68,27.67A27.71,27.71,0,0,0,427.41,334.77Zm70.36-89.41v65a7.63,7.63,0,0,1-7.62,7.62H450.3a53.55,53.55,0,0,0-97.61,0H325.81a7.63,7.63,0,0,1-7.63-7.62V154.44a7.63,7.63,0,0,1,7.63-7.62H426.14a18.69,18.69,0,0,1,15.23,7.62Zm-35.56-19.82-34.29-56.89c-2.65-4.9-5.91-7.61-17.53-7.61H348.16a7.61,7.61,0,0,0-7.62,7.61v56.89a7.62,7.62,0,0,0,7.62,7.63H454.58A7.62,7.62,0,0,0,462.21,225.54ZM491.92,287a7.12,7.12,0,0,0-14.23,0v13.46a7.12,7.12,0,1,0,14.23,0V287ZM0,260.41H299.91V123.13H0V260.41Z" transform="translate(0 -123.13)"/>
</svg>
