<svg id="Capa_1" data-name="Capa 1" xmlns="http://www.w3.org/2000/svg" viewBox="0 0 355.71 317.68">
  <defs>
    <style>
      .cls-1 {
        fill: #4b6eb3;
      }
    </style>
  </defs>
  <title>card3</title>
  <g>
    <path class="cls-1" d="M152.69,79.16a10,10,0,0,0-10,10v80.5H92a10,10,0,0,0-10,10v5a10,10,0,0,0,10,10h65.71a10,10,0,0,0,10-10V89.16a10,10,0,0,0-10-10h-5Z" transform="translate(0 -19.01)"/>
    <path class="cls-1" d="M197,309l0.05-.39V298.18A130,130,0,0,1,155.48,305C83.53,305,25,246.44,25,174.49S83.53,44,155.48,44c65.82,0,120.4,49,129.22,112.42a210.25,210.25,0,0,1,25.41,1.85C302,80.14,235.74,19,155.48,19,69.75,19,0,88.76,0,174.49S69.75,330,155.48,330a155,155,0,0,0,45.28-6.73A17.2,17.2,0,0,1,197,312.82V309Z" transform="translate(0 -19.01)"/>
    <path class="cls-1" d="M207.05,190.28c0,10,28.28,23.88,74.33,23.88s74.33-13.91,74.33-23.88-28.28-23.88-74.33-23.88S207.05,180.31,207.05,190.28ZM283,179.38l0.7,1.34a79.65,79.65,0,0,1,11.67,1.08c1,0.18,1.42.57,1,.89L293.45,185a3.81,3.81,0,0,1-2.48.26,52.47,52.47,0,0,0-9.26-.6c-3.21.08-8.49,0.53-7.87,1.72s2.55,1.56,11,2.2c7.18,0.55,18,1.38,20,5.48,1.34,2.58-3.13,4.68-11.46,5.46l0.73,1.41c0.19,0.36-.5.67-1.53,0.7l-7.45.19a2.89,2.89,0,0,1-2.2-.6l-0.76-1.48a64.62,64.62,0,0,1-13.83-2.11c-0.84-.24-1-0.65-0.4-0.92l4.49-1.92a3.47,3.47,0,0,1,1.24-.21,5,5,0,0,1,1.41.17,41.59,41.59,0,0,0,11,1.18c3.07-.07,8.11-0.5,7.54-1.6s-2.2-1.32-10.16-1.93c-7.41-.57-18.59-1.43-20.82-5.74-1.27-2.46,2.52-4.49,9.95-5.4l-0.81-1.56c-0.18-.36.5-0.67,1.53-0.7l7.45-.19A2.89,2.89,0,0,1,283,179.38Z" transform="translate(0 -19.01)"/>
    <path class="cls-1" d="M207.05,206.94v24.84c1.2,9.91,29.22,23.21,74.27,23.21,46.05,0,74.33-13.91,74.33-23.88l0-24.16c-15.2,11.26-45.39,17.2-74.3,17.2S222.25,218.21,207.05,206.94Z" transform="translate(0 -19.01)"/>
    <path class="cls-1" d="M207.05,288.66V309c0,0.08,0,.17,0,0.25s0,0.28,0,.42v3.2c0,10,28.28,23.88,74.32,23.88s74.33-13.91,74.33-23.88l0-24.22c-15.18,11.29-45.42,17.24-74.36,17.24S222.27,299.9,207.05,288.66Z" transform="translate(0 -19.01)"/>
    <path class="cls-1" d="M207.05,247.82v24.8c1.2,9.91,29.22,23.21,74.27,23.21,46.05,0,74.33-13.91,74.33-23.88l0-24.21C340.5,259,310.27,265,281.32,265S222.27,259.06,207.05,247.82Z" transform="translate(0 -19.01)"/>
  </g>
</svg>
