<svg id="Capa_1" data-name="Capa 1" xmlns="http://www.w3.org/2000/svg" viewBox="0 0 356.46 572.6">
  <defs>
    <style>
      .cls-1 {
        fill: #4b6eb3;
      }
    </style>
  </defs>
  <title>card1</title>
  <path class="cls-1" d="M246.39,504.5v12h-74V572.6H464.53V516.51h-134v-48.3H288.9v-0.35c-39.14,0-74.53-17.73-99.78-46.14l35.45,14.16v9H410.77V424.6H224.58v1.23l-47-18.76a158.79,158.79,0,0,1-27.47-89.95c0-54.32,26.59-102,66.38-128.55a65.09,65.09,0,0,0,76.63,27.54v52.68a14,14,0,0,0,13.64,14v94.3h0.47c2.19,2.67,11.77,7,23.28,7s21.07-4.35,23.27-7h0.48v-94.3a14,14,0,0,0,13.63-14V63.1a14,14,0,0,0-12.46-13.87V26.49a15.26,15.26,0,0,0-.16-1.56h11.31A9.35,9.35,0,0,0,376,15.58V9.35A9.35,9.35,0,0,0,366.63,0H294.44a9.35,9.35,0,0,0-9.34,9.35v6.23a9.35,9.35,0,0,0,9.34,9.35h11.32c0,0.52-.15,1-0.15,1.56V49.23A14,14,0,0,0,293.15,63.1V92.26a65.22,65.22,0,0,0-85.77,52.83c-58.86,31.84-99.3,97-99.3,172C108.07,407.82,167.13,484.05,246.39,504.5ZM228.57,181.38a131.13,131.13,0,0,1,12.37-5.73,37.88,37.88,0,1,0,1.42-44.84,170.66,170.66,0,0,0-18.81,6.57A51.48,51.48,0,1,1,228.57,181.38Z" transform="translate(-108.07 0)"/>
</svg>
