<svg id="Layer_1" data-name="Layer 1" xmlns="http://www.w3.org/2000/svg" viewBox="0 0 572.46 235.71">
  <defs>
    <style>
      .cls-1 {
        fill: #2c256e;
      }

      .cls-1, .cls-2 {
        fill-rule: evenodd;
      }

      .cls-2 {
        fill: #c02420;
      }

      .cls-3 {
        fill: none;
        stroke: #59658a;
        stroke-miterlimit: 2.61;
        stroke-width: 4.47px;
      }
    </style>
  </defs>
  <title>logo</title>
  <g>
    <path class="cls-1" d="M-196.84-10.45h25.75V3.94q13.79-16.79,32.91-16.79a35.35,35.35,0,0,1,17.57,4.17A32.05,32.05,0,0,1-108.37,3.94a48.51,48.51,0,0,1,15-12.62,36.81,36.81,0,0,1,17.2-4.17c7.73,0,14.32,1.59,19.68,4.75a28.83,28.83,0,0,1,12,13.84q2.9,6.77,2.88,21.88V95.09H-69.53V34.77q0-15.72-2.88-20.29c-2.58-4-6.55-6-11.91-6a19,19,0,0,0-11.06,3.6,19.85,19.85,0,0,0-7.43,10.48q-2.29,6.92-2.31,21.81V95.09H-133V37.25c0-10.28-.51-16.89-1.49-19.88a12.68,12.68,0,0,0-4.61-6.65,14.65,14.65,0,0,0-8.52-2.21A20.08,20.08,0,0,0-159.25,12a19,19,0,0,0-7.43,10c-1.49,4.38-2.24,11.6-2.24,21.75V95.09h-27.92V-10.45h0Z" transform="translate(252 82)"/>
    <path class="cls-1" d="M171.67,61.51l27.85,4.65q-5.39,15.32-17,23.3c-7.7,5.36-17.37,8-29,8q-27.53,0-40.74-18-10.43-14.4-10.45-36.37,0-26.26,13.74-41.11t34.67-14.86q23.56,0,37.18,15.57t13,47.66H131q0.31,12.42,6.75,19.3a21.17,21.17,0,0,0,16.11,6.92,17.13,17.13,0,0,0,11-3.56c3-2.41,5.26-6.24,6.75-11.53h0Zm1.59-28.22Q173,21.12,167,14.83a20.13,20.13,0,0,0-29.62.37q-6,6.62-5.87,18.08h41.73Z" transform="translate(252 82)"/>
    <polygon class="cls-2" points="462.34 177.09 500.4 122.71 463.94 71.55 498.03 71.55 516.72 100.56 536.4 71.55 569.2 71.55 533.41 121.52 572.46 177.09 538.19 177.09 516.72 144.39 495.04 177.09 462.34 177.09 462.34 177.09"/>
    <path class="cls-1" d="M-171.31-58.71l7.61,2a14,14,0,0,1-5.82,7.79,19.22,19.22,0,0,1-10.33,2.54q-7.74,0-12.73-4.35t-5-11.91q0-8,5-12.41t13.19-4.42q7.13,0,11.59,3.47a12.23,12.23,0,0,1,4,5.9l-7.78,1.53a6.66,6.66,0,0,0-2.88-3.93A9.45,9.45,0,0,0-179.78-74a9.77,9.77,0,0,0-7,2.56q-2.69,2.55-2.69,8.27,0,6.07,2.65,8.64a9.46,9.46,0,0,0,6.89,2.58,8.89,8.89,0,0,0,5.39-1.64,9.16,9.16,0,0,0,3.24-5.15h0Zm53-4A17.21,17.21,0,0,1-116.52-71a15.44,15.44,0,0,1,3.62-4.39,15.68,15.68,0,0,1,5-2.88,25.32,25.32,0,0,1,8.39-1.27q8.6,0,13.76,4.39t5.16,12.2q0,7.76-5.13,12.13T-99.38-46.4q-8.68,0-13.8-4.35t-5.12-12h0Zm8.09-.22q0,5.43,3.05,8.24a11,11,0,0,0,7.75,2.8,10.89,10.89,0,0,0,7.71-2.79q3-2.78,3-8.35t-2.93-8.21A11,11,0,0,0-99.41-74a11.11,11.11,0,0,0-7.83,2.74q-3,2.74-3,8.26h0Zm75.92,16V-79h11.76l7.06,21.84L-8.5-79H3.28v32H-4v-25.2l-7.73,25.2H-19.3L-27-72.14v25.2h-7.29Zm85.63,0V-79h12.6a55.13,55.13,0,0,1,9.34.48,10.49,10.49,0,0,1,5.61,3.13,8.77,8.77,0,0,1,2.26,6.23,8.9,8.9,0,0,1-1.3,5A9.56,9.56,0,0,1,76.53-61a12.68,12.68,0,0,1-4.07,1.51,54.25,54.25,0,0,1-8.15.46H59.19v12.07H51.34Zm7.85-26.59v9.08h4.29A24.5,24.5,0,0,0,69.7-65a5.16,5.16,0,0,0,2.45-1.57A3.8,3.8,0,0,0,73-69a3.74,3.74,0,0,0-1.25-2.88,5.82,5.82,0,0,0-3.15-1.42A45.38,45.38,0,0,0,63-73.54H59.19Zm99.7,26.59h-8.55l-3.4-7.27H131.39l-3.21,7.27h-8.33L135-79h8.31l15.58,32h0ZM144.43-59.61l-5.36-11.88-5.25,11.88h10.62Zm59,12.66V-79H211L227-57.58V-79h7.3v32h-7.89L210.68-67.82v20.87h-7.3Zm89.63,0V-60.42L278.77-79H288l9.16,12.66,9-12.66h9l-14.3,18.58v13.43H293Z" transform="translate(252 82)"/>
    <line class="cls-3" x1="53.52" y1="49.92" x2="572.28" y2="49.92"/>
    <path class="cls-2" d="M-14.57-10.45H11.48V5.06A38.33,38.33,0,0,1,25.19-7.87a37.78,37.78,0,0,1,19.2-5q18.37,0,31.18,14.42T88.39,41.73q0,26.41-12.89,41.08T44.18,97.46A35.86,35.86,0,0,1,28.31,94q-7.07-3.51-15-11.94v56.46H-14.57v-149h0ZM13.35,144.06v9.65H-14.57v-9.65H13.35ZM13.08,40.54c0,11.84,2.34,20.63,7.06,26.26s10.42,8.51,17.2,8.51a20.2,20.2,0,0,0,16.18-7.8C57.82,62.32,60,53.77,60,41.93q0-16.64-6.68-24.66t-16.49-8a21.37,21.37,0,0,0-17,7.9Q13.06,25,13.08,40.54h0Z" transform="translate(252 82)"/>
    <path class="cls-2" d="M-252,95.09V-67h29.41V95.09H-252Zm0-167.64V-82h29.41v9.45H-252Z" transform="translate(252 82)"/>
  </g>
</svg>
